<?xml version="1.0" encoding="UTF-8"?>
<svg width="215px" height="63px" viewBox="0 0 215 63" version="1.1" xmlns="http://www.w3.org/2000/svg" xmlns:xlink="http://www.w3.org/1999/xlink">
    <title>Artboard</title>
    <defs>
        <polygon id="path-1" points="0 0.066348 61.764417 0.066348 61.764417 61.829388 0 61.829388"></polygon>
    </defs>
    <g id="Artboard" stroke="none" stroke-width="1" fill="none" fill-rule="evenodd">
        <g id="Group-44">
            <path d="M32.564367,32.121072 L32.564367,32.121072 C32.501637,32.061402 32.438907,32.003262 32.376177,31.943592 L32.564367,32.121072 Z" id="Fill-1" fill="#EE4055"></path>
            <path d="M27.345996,22.201011 C27.599976,22.467231 27.863136,22.756401 28.140066,23.031801 C28.358856,23.246001 28.592946,23.444901 28.885176,23.712651 C32.627556,18.735561 37.829556,16.882731 43.784316,16.760331 L43.784316,14.714721 C39.260106,14.716251 35.150526,15.823971 31.229136,18.435681 C32.159376,15.290001 33.872976,13.082211 36.362286,11.367081 C36.022626,10.767321 35.722746,10.239471 35.288226,9.472941 C33.908166,10.735191 32.655096,11.881161 31.374486,13.053141 C30.802266,10.915731 29.767986,9.070551 27.693306,7.861851 C27.375066,8.493741 27.113436,9.015471 26.841096,9.554031 C31.215366,13.669731 29.200356,17.913951 27.345996,22.201011" id="Fill-3" fill="#EE4055"></path>
            <path d="M26.552844,23.744934 C26.468694,23.650074 26.386074,23.558274 26.301924,23.460354 C26.298864,23.458824 26.297334,23.455764 26.295804,23.454234 C26.161164,23.296644 26.026524,23.137524 25.891884,22.976874 C25.787844,22.849884 25.685334,22.724424 25.590474,22.600494 C24.716844,21.573864 24.011514,20.482974 23.580054,19.288044 C23.523444,19.128924 23.471424,18.966744 23.423994,18.803034 L23.423994,18.803034 L23.423994,18.803034 C23.082804,17.629524 23.004774,16.356564 23.286294,14.947434 C23.505084,13.858074 24.011514,12.825324 24.404724,11.706894 C23.967144,11.368764 23.509674,11.012274 22.981824,10.602234 C20.971404,13.152744 20.663874,15.802704 21.765474,20.617614 C19.804014,20.548764 17.955774,20.893014 16.239114,22.120074 C16.658334,22.675464 17.045424,23.186484 17.417214,23.679144 C18.812574,23.025834 19.869804,22.689234 20.819934,22.701474 C20.979054,22.704534 22.382064,22.784094 24.013044,24.376824 C24.386364,24.731784 24.843834,25.169364 25.374744,25.680384 C25.809264,26.145504 26.375364,26.710074 27.085284,27.346554 C28.800414,28.888794 31.335624,30.842604 34.833204,32.762754 L36.349434,31.570884 C33.518934,29.815974 31.301964,28.166634 29.568474,26.673354 C28.335294,25.611534 27.345384,24.630804 26.552844,23.744934" id="Fill-5" fill="#EE4055"></path>
            <path d="M24.517179,26.13969 C23.410989,27.41877 21.480129,28.57086 21.480129,28.57086 C21.480129,28.57086 22.390479,29.40012 23.646609,29.82393 C24.283089,29.37717 24.866019,28.85697 25.253109,28.48977 L25.253109,28.48977 L25.260759,28.48059 C25.378569,28.3689 25.478019,28.27251 25.554519,28.19601 L25.989039,27.77067 C25.288299,27.17703 24.517179,26.13969 24.517179,26.13969" id="Fill-7" fill="#EE4055"></path>
            <path d="M31.348935,26.495109 L32.996745,27.742059 C34.060095,26.548659 35.323875,25.647489 36.622845,24.965109 C36.645795,24.975819 36.667215,24.981939 36.690165,24.991119 C37.478115,25.320069 38.240055,25.765299 38.927025,26.273259 C39.584925,26.758269 40.131135,27.393219 40.782915,28.017459 C41.257215,27.610479 41.650425,27.275409 42.112485,26.879139 C41.359725,25.841799 40.343805,24.916149 39.450285,24.206229 C39.317175,24.114429 39.187125,24.022629 39.055545,23.930829 C42.136965,22.882779 44.829765,22.856769 44.829765,22.856769 L44.304975,20.811159 C33.558255,21.921939 31.348935,26.495109 31.348935,26.495109" id="Fill-9" fill="#EE4055"></path>
            <g id="Group-13" transform="translate(0.000000, 0.564264)">
                <mask id="mask-2" fill="white">
                    <use xlink:href="#path-1"></use>
                </mask>
                <g id="Clip-12"></g>
                <path d="M40.602987,58.266018 C38.857257,57.880458 35.925777,56.872188 35.651907,54.407358 C35.653437,54.153378 35.653437,53.884098 35.654967,53.602578 C35.664147,48.908538 35.693217,40.449168 35.723817,39.009438 C35.766657,37.028088 36.390897,35.225748 38.132037,34.153218 C42.653187,31.367088 47.367117,29.131758 53.018937,29.895228 C53.216307,29.347488 53.425917,28.773738 53.730387,27.939888 C52.163667,27.782298 50.726997,27.635418 49.219947,27.482418 C50.910597,25.091028 51.880617,22.523688 51.845427,19.627398 L49.913037,19.627398 C49.232187,25.156818 47.637927,27.249858 42.584337,29.518848 C40.837077,30.305268 39.103587,31.151358 37.452717,32.119848 C35.300007,33.383628 34.011747,35.328258 33.782247,37.835928 C33.621597,39.587778 33.624657,48.490848 33.597117,50.253408 C33.589467,50.759838 33.586407,51.552378 33.626187,52.424478 C33.624657,52.946208 33.623127,53.328708 33.621597,53.607168 C33.620067,53.631648 33.603237,53.850438 33.617007,54.188568 C33.610887,54.600138 33.604767,53.123688 33.597117,53.602578 C33.592527,53.881038 33.589467,54.101358 33.594057,54.277308 C33.603237,54.275778 33.610887,54.277308 33.621597,54.277308 C33.696567,55.585458 34.262667,58.394538 37.647027,59.145768 C35.786547,59.590998 33.855687,59.857218 31.874337,59.924538 C31.881987,54.370638 31.912587,33.135768 31.947777,31.772538 L30.006207,30.782628 C29.816487,32.147388 29.850147,45.681768 29.821077,47.164338 C29.813427,47.588148 29.810367,48.256758 29.850147,48.991158 C29.839437,51.682428 29.833317,57.831498 29.825667,59.923008 C27.870327,59.852628 25.963947,59.587938 24.123357,59.147298 C28.485387,58.165038 28.164087,53.347068 28.164087,53.347068 L28.113597,53.353188 C28.142667,52.930908 28.162557,52.208748 28.162557,50.990868 C28.167147,50.678748 28.168677,50.400288 28.168677,50.176908 C28.168677,49.346118 28.162557,46.191258 28.161027,43.363818 C28.161027,41.201928 28.164087,39.514338 28.168677,38.873268 C28.170207,38.807478 28.170207,38.730978 28.170207,38.682018 C28.223757,34.994718 26.676927,32.254488 23.382837,30.548538 C22.477077,30.080358 21.560607,29.630538 20.625777,29.225088 C19.152387,28.587078 17.617797,28.079118 16.182657,27.367668 C13.084407,25.830018 11.620197,23.005638 12.144987,19.601388 C12.369897,18.141768 12.796767,16.712748 13.156317,15.164388 C12.698847,14.908878 12.169467,14.615118 11.563587,14.280048 C10.307457,16.761708 9.810207,19.258668 10.047357,21.897918 C10.295217,24.654978 11.711997,26.774028 13.938147,28.499868 C12.201597,28.844118 10.645587,29.151648 9.022257,29.474478 C9.205857,30.234888 9.342027,30.796398 9.502677,31.466538 C12.703437,30.810168 15.838407,30.204288 18.944307,30.898908 C18.944307,30.898908 18.069147,31.515498 17.033337,32.477868 C16.197957,33.255108 15.258537,34.260318 14.589927,35.352738 C15.084117,35.710758 15.500277,36.015228 16.005177,36.382428 C16.606467,35.709228 17.102187,35.032968 17.717247,34.495938 C18.362907,33.935958 19.086597,33.434118 19.847007,33.040908 C21.552957,32.162688 22.844277,32.393718 24.253407,33.678918 C25.563087,34.872318 26.075637,36.388548 26.083287,38.111328 L26.083287,38.678958 L26.025147,53.599518 L26.002197,53.602578 C26.015967,53.723448 26.022087,53.839728 26.025147,53.954478 L26.023617,54.055458 C26.023617,54.078408 26.020557,54.101358 26.020557,54.125838 C26.020557,54.113598 26.020557,54.099828 26.020557,54.090648 L26.020557,54.128898 C25.945587,56.765088 22.936077,57.840678 21.118437,58.250718 C9.918837,54.232938 1.886337,43.512228 1.886337,30.947868 C1.886337,14.959368 14.894397,1.952838 30.881367,1.952838 C46.869867,1.952838 59.877927,14.959368 59.877927,30.947868 C59.877927,43.527528 51.825537,54.260478 40.602987,58.266018 M30.881367,0.066348 C13.853997,0.066348 -0.000153,13.918968 -0.000153,30.947868 C-0.000153,47.976768 13.853997,61.829388 30.881367,61.829388 C47.910267,61.829388 61.764417,47.976768 61.764417,30.947868 C61.764417,13.918968 47.910267,0.066348 30.881367,0.066348" id="Fill-11" fill="#EE4055" mask="url(#mask-2)"></path>
            </g>
            <path d="M88.671456,39.226086 L83.403666,39.226086 C82.679976,39.226086 81.985356,39.088386 81.336636,38.816046 C80.689446,38.545236 80.118756,38.164266 79.639866,37.683846 C79.160976,37.204956 78.780006,36.634266 78.507666,35.988606 C78.236856,35.339886 78.099156,34.643736 78.099156,33.920046 C78.099156,33.196356 78.236856,32.506326 78.507666,31.871376 C78.781536,31.237956 79.160976,30.673386 79.639866,30.194496 C80.121816,29.714076 80.692506,29.333106 81.336636,29.062296 C82.634076,28.517616 84.179376,28.517616 85.452336,29.062296 C86.084226,29.333106 86.647266,29.714076 87.130746,30.192966 C87.609636,30.674916 87.990606,31.237956 88.261416,31.871376 C88.532226,32.504796 88.671456,33.193296 88.671456,33.920046 L88.671456,39.226086 Z M89.125866,28.197846 C88.392996,27.468036 87.531606,26.883576 86.560056,26.464356 C85.591566,26.046666 84.529746,25.833996 83.403666,25.833996 C82.302066,25.833996 81.246366,26.046666 80.262576,26.465886 C79.278786,26.885106 78.403626,27.469566 77.661576,28.199376 C76.917996,28.930716 76.328946,29.793636 75.911256,30.762126 C75.492036,31.733676 75.279366,32.795496 75.279366,33.920046 C75.279366,35.021646 75.492036,36.077346 75.912786,37.061136 C76.328946,38.043396 76.917996,38.918556 77.663106,39.662136 C78.406686,40.404186 79.280316,40.993236 80.262576,41.412456 C81.247896,41.831676 82.303596,42.044346 83.403666,42.044346 L91.489716,42.044346 L91.489716,33.920046 C91.489716,32.797026 91.278576,31.733676 90.859356,30.762126 C90.440136,29.793636 89.857206,28.930716 89.125866,28.197846 L89.125866,28.197846 Z" id="Fill-14" fill="#102A51"></path>
            <path d="M106.874172,33.920199 C106.874172,34.645419 106.736472,35.341569 106.464132,35.987229 C106.193322,36.632889 105.812352,37.203579 105.331932,37.683999 C104.853042,38.162889 104.288472,38.543859 103.655052,38.814669 C103.018572,39.088539 102.328542,39.226239 101.606382,39.226239 C100.882692,39.226239 100.188072,39.088539 99.539352,38.816199 C98.890632,38.543859 98.319942,38.162889 97.842582,37.683999 C97.365222,37.208169 96.984252,36.635949 96.710382,35.987229 C96.439572,35.340039 96.301872,34.643889 96.301872,33.920199 C96.301872,33.196509 96.439572,32.506479 96.710382,31.869999 C96.984252,31.235049 97.365222,30.670479 97.844112,30.194649 C98.321472,29.714229 98.892162,29.334789 99.539352,29.062449 C100.188072,28.790109 100.882692,28.652409 101.606382,28.652409 L106.874172,28.652409 L106.874172,33.920199 Z M98.465292,26.464509 C97.481502,26.885259 96.606342,27.468189 95.864292,28.201059 C95.120712,28.929339 94.531662,29.792259 94.113972,30.763809 C93.696282,31.729239 93.483612,32.791059 93.483612,33.920199 C93.483612,35.026389 93.696282,36.082089 94.115502,37.061289 C94.533192,38.045079 95.122242,38.918709 95.864292,39.660759 C96.609402,40.404339 97.483032,40.993389 98.465292,41.414139 C100.434402,42.251049 102.778362,42.251049 104.745942,41.414139 C105.728202,40.993389 106.595712,40.404339 107.327052,39.663819 C108.058392,38.918709 108.642852,38.043549 109.062072,37.061289 C109.481292,36.077499 109.692432,35.020269 109.692432,33.920199 L109.692432,19.137339 L106.874172,19.137339 L106.874172,25.834149 L101.606382,25.834149 C100.504782,25.834149 99.449082,26.045289 98.465292,26.464509 L98.465292,26.464509 Z" id="Fill-16" fill="#102A51"></path>
            <path d="M124.925418,25.760097 C124.703568,26.157897 124.417458,26.707167 124.070148,27.392607 C123.672348,28.174437 123.239358,29.022057 122.766588,29.941587 C122.295348,30.859587 121.819518,31.782177 121.334508,32.713947 L119.828988,35.616357 L119.613258,35.183367 C119.316438,34.589727 118.950768,33.884397 118.519308,33.068907 C118.084788,32.248827 117.644148,31.398147 117.195858,30.515337 C116.749098,29.637117 116.303868,28.769607 115.858638,27.914337 L114.737148,25.760097 L111.570048,25.760097 L119.833578,41.719527 L128.130768,25.760097 L124.925418,25.760097 Z" id="Fill-18" fill="#102A51"></path>
            <path d="M141.406425,39.226086 L136.138635,39.226086 C135.414945,39.226086 134.720325,39.088386 134.071605,38.816046 C133.424415,38.545236 132.853725,38.164266 132.374835,37.683846 C131.897475,37.206486 131.516505,36.635796 131.242635,35.988606 C130.971825,35.342946 130.834125,34.646796 130.834125,33.920046 C130.834125,33.193296 130.971825,32.503266 131.244165,31.871376 C131.516505,31.234896 131.897475,30.670326 132.376365,30.192966 C132.856785,29.714076 133.427475,29.333106 134.071605,29.062296 C135.369045,28.517616 136.912815,28.519146 138.187305,29.062296 C138.819195,29.333106 139.382235,29.714076 139.865715,30.192966 C140.344605,30.673386 140.724045,31.237956 140.996385,31.871376 C141.268725,32.504796 141.406425,33.194826 141.406425,33.920046 L141.406425,39.226086 Z M141.860835,28.197846 C141.129495,27.468036 140.268105,26.885106 139.295025,26.464356 C138.325005,26.046666 137.263185,25.833996 136.138635,25.833996 C135.037035,25.833996 133.981335,26.046666 132.997545,26.465886 C132.013755,26.885106 131.138595,27.469566 130.396545,28.199376 C129.652965,28.930716 129.063915,29.793636 128.644695,30.763656 C128.227005,31.733676 128.014335,32.797026 128.014335,33.920046 C128.014335,35.020116 128.227005,36.075816 128.646225,37.061136 C129.063915,38.044926 129.654495,38.918556 130.398075,39.662136 C131.141655,40.404186 132.015285,40.993236 132.997545,41.412456 C133.982865,41.831676 135.038565,42.044346 136.138635,42.044346 L144.224685,42.044346 L144.224685,33.920046 C144.224685,32.797026 144.013545,31.733676 143.594325,30.762126 C143.175105,29.793636 142.590645,28.930716 141.860835,28.197846 L141.860835,28.197846 Z" id="Fill-20" fill="#102A51"></path>
            <path d="M160.504344,28.237779 C159.760764,27.506439 158.890194,26.921979 157.918644,26.501229 C156.001554,25.673499 153.607104,25.655139 151.622694,26.502759 C150.638904,26.921979 149.769864,27.506439 149.040054,28.236249 C148.308714,28.967589 147.725784,29.830509 147.306564,30.798999 C146.887344,31.769019 146.674674,32.830839 146.674674,33.956919 L146.674674,42.079689 L149.494464,42.079689 L149.494464,33.956919 C149.494464,33.233229 149.632164,32.543199 149.904504,31.908249 C150.176844,31.274829 150.556284,30.710259 151.035174,30.231369 C151.515594,29.750949 152.080164,29.369979 152.713584,29.099169 C153.978894,28.557549 155.530314,28.554489 156.829284,29.099169 C157.473414,29.368449 158.044104,29.750949 158.526054,30.231369 C159.003414,30.710259 159.384384,31.274829 159.656724,31.908249 C159.929064,32.544729 160.068294,33.234759 160.068294,33.956919 L160.068294,42.079689 L162.886554,42.079689 L162.886554,33.956919 C162.886554,32.832369 162.673884,31.769019 162.254664,30.798999 C161.835444,29.828979 161.246394,28.967589 160.504344,28.237779" id="Fill-22" fill="#102A51"></path>
            <path d="M177.37443,36.684756 L176.35851,37.667016 C175.8735,38.179566 175.29516,38.574306 174.64338,38.835936 C173.99772,39.094506 173.31534,39.226086 172.61766,39.226086 C171.16722,39.226086 169.9065,38.699766 168.87222,37.665486 C168.35355,37.146816 167.95881,36.556236 167.70177,35.910576 C167.4432,35.263386 167.31162,34.594776 167.31162,33.920046 C167.31162,33.246846 167.4432,32.578236 167.70177,31.932576 C167.96187,31.280796 168.35661,30.702456 168.87681,30.208266 C169.39089,29.694186 169.98147,29.300976 170.62866,29.042406 C171.92457,28.525266 173.30922,28.525266 174.60666,29.042406 C175.25385,29.302506 175.84443,29.695716 176.36157,30.212856 L177.37443,31.193586 L179.33895,29.196936 L178.35669,28.216206 C177.56721,27.426726 176.66298,26.825436 175.67001,26.430696 C174.67398,26.034426 173.64735,25.833996 172.61766,25.833996 C171.58644,25.833996 170.55828,26.034426 169.56378,26.430696 C168.57081,26.825436 167.66658,27.426726 166.8771,28.216206 C166.08762,29.005686 165.49245,29.903796 165.10842,30.884526 C164.72439,31.868316 164.53008,32.896476 164.53008,33.938406 C164.53008,34.983396 164.72439,36.011556 165.10842,36.992286 C165.49092,37.973016 166.08609,38.869596 166.8771,39.660606 C167.66658,40.451616 168.57081,41.052906 169.56378,41.447646 C171.55278,42.238656 173.67489,42.241716 175.67001,41.447646 C176.66298,41.052906 177.56568,40.451616 178.35669,39.660606 L179.33895,38.681406 L177.37443,36.684756 Z" id="Fill-24" fill="#102A51"></path>
            <path d="M211.215582,33.920199 C211.215582,34.643889 211.077882,35.338509 210.805542,35.987229 C210.534732,36.632889 210.153762,37.203579 209.673342,37.683999 C209.194452,38.162889 208.631412,38.542329 207.996462,38.814669 C207.359982,39.088539 206.669952,39.226239 205.947792,39.226239 C205.224102,39.226239 204.529482,39.088539 203.880762,38.816199 C203.233572,38.543859 202.661352,38.162889 202.182462,37.683999 C201.703572,37.205109 201.322602,36.634419 201.051792,35.987229 C200.779452,35.338509 200.641752,34.643889 200.641752,33.920199 C200.641752,33.196509 200.780982,32.508009 201.051792,31.869999 C201.324132,31.238109 201.703572,30.673539 202.182462,30.194649 C202.662882,29.714229 203.235102,29.333259 203.880762,29.062449 C204.529482,28.790109 205.224102,28.652409 205.947792,28.652409 L211.215582,28.652409 L211.215582,33.920199 Z M202.806702,26.464509 C201.822912,26.885259 200.947752,27.468189 200.204172,28.201059 C199.462122,28.929339 198.874602,29.792259 198.453852,30.763809 C198.036162,31.730769 197.823492,32.794119 197.823492,33.920199 C197.823492,35.021799 198.036162,36.079029 198.455382,37.061289 C198.874602,38.045079 199.463652,38.918709 200.205702,39.660759 C200.950812,40.404339 201.825972,40.993389 202.806702,41.414139 C204.771222,42.251049 207.116712,42.252579 209.087352,41.414139 C210.068082,40.993389 210.937122,40.404339 211.668462,39.663819 C212.399802,38.918709 212.982732,38.043549 213.401952,37.061289 C213.821172,36.079029 214.033842,35.021799 214.033842,33.920199 L214.033842,19.137339 L211.215582,19.137339 L211.215582,25.834149 L205.947792,25.834149 C204.844662,25.834149 203.788962,26.045289 202.806702,26.464509 L202.806702,26.464509 Z" id="Fill-26" fill="#102A51"></path>
            <path d="M192.46176,41.505021 C193.44555,41.096511 194.33295,40.501341 195.09795,39.736341 L196.07715,38.757141 L194.0805,36.760491 L193.1013,37.741221 C192.27357,38.568951 191.2959,39.072321 190.1943,39.242151 C189.06822,39.413511 188.04771,39.257451 187.06392,38.764791 C186.70437,38.576601 185.55534,37.897281 184.77198,36.605961 L184.75821,36.619731 L184.50882,36.133191 L184.51647,36.125541 C184.20741,35.453871 184.05135,34.737831 184.05135,33.995781 C184.05135,32.545341 184.57614,31.284621 185.61195,30.250341 C186.43968,29.421081 187.41888,28.922301 188.52201,28.766241 C189.62208,28.610181 190.67625,28.783071 191.66157,29.274201 L191.96604,29.425671 L191.72583,29.668941 C191.55294,29.841831 191.26683,30.135591 190.99602,30.414051 C190.82313,30.590001 190.65942,30.758301 190.53396,30.886821 L192.54438,32.832981 L196.07715,29.271141 L195.09795,28.291941 C194.30694,27.500931 193.40424,26.899641 192.40974,26.504901 C191.41524,26.108631 190.38708,25.908201 189.35586,25.908201 C188.32464,25.908201 187.29801,26.108631 186.30504,26.504901 C185.31207,26.899641 184.40784,27.499401 183.61683,28.291941 C182.82429,29.081421 182.23065,29.979531 181.84968,30.958731 C181.46565,31.940991 181.27134,32.961501 181.27134,33.995781 C181.27134,35.030061 181.46565,36.058221 181.84968,37.049661 C182.23065,38.042631 182.82582,38.945331 183.6153,39.734811 C184.38336,40.502871 185.26923,41.098041 186.25149,41.505021 C188.21448,42.318981 190.49877,42.318981 192.46176,41.505021" id="Fill-28" fill="#102A51"></path>
            <polygon id="Fill-30" fill="#EE4055" points="187.104771 34.010775 189.430371 36.307305 191.726901 33.981705 189.401301 31.683645"></polygon>
            <path d="M170.339031,48.228759 C170.153901,48.049749 169.939701,47.905929 169.694901,47.800359 C169.447041,47.696319 169.185411,47.642769 168.905421,47.642769 L166.201911,47.642769 C166.010661,47.642769 165.853071,47.575449 165.723021,47.440809 C165.591441,47.304639 165.525651,47.142459 165.525651,46.952739 C165.525651,46.763019 165.591441,46.602369 165.723021,46.472319 C165.853071,46.340739 166.010661,46.276479 166.201911,46.276479 L170.273241,46.276479 L170.273241,44.940789 L166.201911,44.940789 C165.923451,44.940789 165.658761,44.992809 165.415491,45.098379 C165.169161,45.203949 164.958021,45.346239 164.775951,45.525249 C164.595411,45.705789 164.451591,45.918459 164.347551,46.163259 C164.243511,46.409589 164.189961,46.671219 164.189961,46.952739 C164.189961,47.232729 164.243511,47.495889 164.347551,47.740689 C164.451591,47.987019 164.595411,48.201219 164.775951,48.386349 C164.958021,48.571479 165.169161,48.716829 165.415491,48.820869 C165.658761,48.927969 165.923451,48.978459 166.201911,48.978459 L168.905421,48.978459 C169.105851,48.978459 169.271091,49.045779 169.401141,49.174299 C169.531191,49.304349 169.596981,49.464999 169.596981,49.654719 C169.596981,49.855149 169.531191,50.021919 169.401141,50.150439 C169.271091,50.282019 169.105851,50.346279 168.905421,50.346279 L164.850921,50.346279 L164.850921,51.681969 L168.905421,51.681969 C169.185411,51.681969 169.447041,51.629949 169.694901,51.525909 C169.939701,51.420339 170.153901,51.274989 170.339031,51.089859 C170.524161,50.904729 170.669511,50.688999 170.775081,50.444199 C170.880651,50.197869 170.932671,49.936239 170.932671,49.654719 C170.932671,49.374729 170.880651,49.111569 170.775081,48.866769 C170.669511,48.621969 170.524161,48.407769 170.339031,48.228759" id="Fill-32" fill="#EE4055"></path>
            <path d="M184.870971,45.947376 C184.560381,45.642906 184.203891,45.402696 183.796911,45.228276 C183.392991,45.052326 182.953881,44.965116 182.484171,44.965116 C182.103201,44.965116 181.740591,45.024786 181.394811,45.144126 C181.049031,45.264996 180.736911,45.434826 180.455391,45.655146 L180.455391,42.261606 L179.119701,42.261606 L179.119701,51.706296 L180.455391,51.706296 L180.455391,48.326526 C180.455391,48.048066 180.508941,47.786436 180.612981,47.540106 C180.720081,47.293776 180.862371,47.079576 181.049031,46.892916 C181.234161,46.709316 181.449891,46.563966 181.696221,46.458396 C181.941021,46.352826 182.204181,46.300806 182.484171,46.300806 C182.764161,46.300806 183.028851,46.352826 183.279771,46.458396 C183.530691,46.563966 183.747951,46.709316 183.933081,46.892916 C184.116681,47.079576 184.262031,47.293776 184.367601,47.540106 C184.473171,47.786436 184.526721,48.048066 184.526721,48.326526 L184.526721,51.706296 L185.862411,51.706296 L185.862411,48.326526 C185.862411,47.858346 185.775201,47.419236 185.599251,47.013786 C185.424831,46.608336 185.181561,46.253376 184.870971,45.947376" id="Fill-34" fill="#EE4055"></path>
            <path d="M205.392096,45.947376 C205.081506,45.642906 204.723486,45.402696 204.316506,45.228276 C203.912586,45.052326 203.473476,44.965116 203.005296,44.965116 C202.452966,44.965116 201.941946,45.085986 201.472236,45.332316 C201.000996,45.577116 200.610846,45.909126 200.301786,46.331406 C199.991196,45.909126 199.604106,45.577116 199.137456,45.332316 C198.672336,45.085986 198.158256,44.965116 197.598276,44.965116 C197.139276,44.965116 196.701696,45.052326 196.291656,45.228276 C195.880086,45.402696 195.523596,45.642906 195.217596,45.947376 C194.913126,46.253376 194.671386,46.608336 194.496966,47.013786 C194.321016,47.419236 194.235336,47.858346 194.235336,48.326526 L194.235336,51.706296 L195.571026,51.706296 L195.571026,48.326526 C195.571026,48.048066 195.623046,47.786436 195.730146,47.540106 C195.834186,47.293776 195.979536,47.079576 196.164666,46.892916 C196.349796,46.709316 196.563996,46.563966 196.808796,46.458396 C197.055126,46.352826 197.318286,46.300806 197.598276,46.300806 C197.878266,46.300806 198.142956,46.352826 198.393876,46.458396 C198.644796,46.563966 198.862056,46.709316 199.045656,46.892916 C199.232316,47.079576 199.377666,47.293776 199.483236,47.540106 C199.588806,47.786436 199.640826,48.048066 199.640826,48.326526 L199.640826,51.706296 L200.976516,51.706296 L200.976516,48.326526 C200.976516,48.048066 201.030066,47.786436 201.134106,47.540106 C201.239676,47.293776 201.385026,47.079576 201.570156,46.892916 C201.753756,46.709316 201.969486,46.563966 202.215816,46.458396 C202.460616,46.352826 202.723776,46.300806 203.005296,46.300806 C203.283756,46.300806 203.549976,46.352826 203.800896,46.458396 C204.050286,46.563966 204.267546,46.709316 204.452676,46.892916 C204.637806,47.079576 204.783156,47.293776 204.887196,47.540106 C204.994296,47.786436 205.046316,48.048066 205.046316,48.326526 L205.046316,51.706296 L206.383536,51.706296 L206.383536,48.326526 C206.383536,47.858346 206.294796,47.419236 206.120376,47.013786 C205.944426,46.608336 205.702686,46.253376 205.392096,45.947376" id="Fill-36" fill="#EE4055"></path>
            <path d="M212.911281,50.369994 L210.884031,50.369994 C210.604041,50.369994 210.337821,50.317974 210.088431,50.212404 C209.837511,50.106834 209.620251,49.961484 209.435121,49.777884 C209.248461,49.591224 209.104641,49.373964 208.999071,49.124574 C208.893501,48.873654 208.841481,48.608964 208.841481,48.327444 C208.841481,48.047454 208.893501,47.784294 208.999071,47.539494 C209.104641,47.294694 209.248461,47.078964 209.435121,46.893834 C209.620251,46.708704 209.837511,46.563354 210.088431,46.457784 C210.337821,46.353744 210.604041,46.300194 210.884031,46.300194 C211.165551,46.300194 211.427181,46.353744 211.673511,46.457784 C211.918311,46.563354 212.132511,46.708704 212.319171,46.893834 C212.502771,47.078964 212.649651,47.294694 212.753691,47.539494 C212.857731,47.784294 212.911281,48.047454 212.911281,48.327444 L212.911281,50.369994 Z M213.264711,45.948294 C212.958711,45.642294 212.603751,45.402084 212.198301,45.227664 C211.792851,45.051714 211.353741,44.964504 210.884031,44.964504 C210.423501,44.964504 209.987451,45.051714 209.577411,45.227664 C209.167371,45.402084 208.806291,45.642294 208.497231,45.948294 C208.186641,46.252764 207.943371,46.607724 207.768951,47.013174 C207.593001,47.420154 207.505791,47.859264 207.505791,48.327444 C207.505791,48.787974 207.593001,49.224024 207.768951,49.634064 C207.943371,50.045634 208.186641,50.405184 208.497231,50.715774 C208.806291,51.026364 209.167371,51.269634 209.577411,51.444054 C209.987451,51.620004 210.423501,51.707214 210.884031,51.707214 L214.248501,51.707214 L214.248501,48.327444 C214.248501,47.859264 214.161291,47.420154 213.985341,47.013174 C213.809391,46.607724 213.569181,46.252764 213.264711,45.948294 L213.264711,45.948294 Z" id="Fill-38" fill="#EE4055"></path>
            <path d="M190.350972,47.439585 L191.369952,48.310155 L193.170762,46.509345 L192.704112,46.042695 C192.375162,45.712215 192.001842,45.464355 191.585682,45.299115 C191.171052,45.133875 190.748772,45.051255 190.317312,45.051255 C189.885852,45.051255 189.463572,45.133875 189.047412,45.299115 C188.632782,45.464355 188.260992,45.712215 187.928982,46.042695 C187.600032,46.371645 187.353702,46.743435 187.194582,47.155005 C187.032402,47.565045 186.952842,47.984265 186.952842,48.414195 C186.952842,48.847185 187.032402,49.267935 187.194582,49.684095 C187.353702,50.100255 187.600032,50.472045 187.928982,50.802525 C188.250282,51.122295 188.614422,51.367095 189.025992,51.538455 C189.436032,51.709815 189.865962,51.793965 190.317312,51.793965 C190.767132,51.793965 191.198592,51.709815 191.608632,51.538455 C192.018672,51.367095 192.384342,51.122295 192.704112,50.802525 L193.170762,50.337405 L192.225222,49.390335 L191.758572,49.856985 C191.438802,50.178285 191.065482,50.369535 190.640142,50.433795 C190.213272,50.499585 189.810882,50.436855 189.431442,50.247135 L189.439092,50.239485 C189.341172,50.187465 188.814852,49.889115 188.502732,49.284765 C188.496612,49.289355 188.490492,49.295475 188.485902,49.301595 C188.345142,49.021605 188.274762,48.724785 188.274762,48.414195 C188.274762,47.855745 188.475192,47.373795 188.874522,46.974465 C189.195822,46.653165 189.569142,46.463445 189.994482,46.402245 C190.419822,46.342575 190.823742,46.408365 191.203182,46.598085 C191.062422,46.740375 190.865052,46.934685 190.611072,47.184075 C190.523862,47.266695 190.436652,47.353905 190.350972,47.439585" id="Fill-40" fill="#EE4055"></path>
            <path d="M173.7162,46.980738 C173.91663,46.780308 174.14001,46.631898 174.3894,46.532448 C174.64032,46.432998 174.8943,46.382508 175.15287,46.382508 C175.41144,46.382508 175.66695,46.432998 175.91787,46.532448 C176.16726,46.631898 176.39064,46.780308 176.59107,46.980738 L177.07149,47.444328 L177.99867,46.501848 L177.53355,46.036728 C177.2046,45.707778 176.83434,45.461448 176.41971,45.296208 C176.00355,45.132498 175.5828,45.049878 175.15287,45.049878 C174.72447,45.049878 174.30219,45.132498 173.88909,45.296208 C173.47446,45.461448 173.10114,45.707778 172.77219,46.036728 C172.44324,46.367208 172.19997,46.735938 172.03932,47.145978 C171.87867,47.554488 171.80064,47.976768 171.80064,48.411288 C171.80064,48.845808 171.87867,49.265028 172.03932,49.676598 C172.19997,50.085108 172.44324,50.453838 172.77219,50.782788 C173.10114,51.114798 173.47446,51.361128 173.88909,51.524838 C174.30219,51.690078 174.72447,51.772698 175.15287,51.772698 C175.5828,51.772698 176.00355,51.690078 176.41971,51.524838 C176.83434,51.361128 177.2046,51.114798 177.53355,50.782788 L177.99867,50.319198 L177.07149,49.376718 L176.59107,49.841838 C176.40135,50.039208 176.18256,50.189148 175.93164,50.290128 C175.68225,50.389578 175.42368,50.440068 175.15287,50.440068 C174.59595,50.440068 174.11553,50.239638 173.7162,49.841838 C173.51577,49.641408 173.36583,49.416498 173.26638,49.167108 C173.16693,48.917718 173.11797,48.663738 173.11797,48.403638 C173.11797,48.143538 173.16693,47.888028 173.26638,47.640168 C173.36583,47.390778 173.51577,47.171988 173.7162,46.980738" id="Fill-42" fill="#EE4055"></path>
        </g>
    </g>
</svg>