<svg xmlns="http://www.w3.org/2000/svg" width="316.517" height="83.931" viewBox="0 0 316.517 83.931">
  <title>arcplex-logo-blanc-RVB</title>
  <g>
    <path d="M131.9,13.234h6.147v8.3h.2a15.963,15.963,0,0,1,3.586-4.252A21.686,21.686,0,0,1,146.5,14.31a23.422,23.422,0,0,1,5.277-1.742,27.188,27.188,0,0,1,5.43-.562,26.408,26.408,0,0,1,9.99,1.843,23.185,23.185,0,0,1,13.064,13.064,26.41,26.41,0,0,1,1.844,9.989,26.4,26.4,0,0,1-1.844,9.99A23.193,23.193,0,0,1,167.2,59.956a26.408,26.408,0,0,1-9.99,1.844,27.193,27.193,0,0,1-5.43-.564A23.32,23.32,0,0,1,146.5,59.5a21.5,21.5,0,0,1-4.662-2.972,15.9,15.9,0,0,1-3.586-4.252h-.2v31.66H131.9ZM137.434,36.9a18.674,18.674,0,0,0,1.537,7.531,19.262,19.262,0,0,0,4.2,6.148,20.183,20.183,0,0,0,6.25,4.149,19.531,19.531,0,0,0,7.787,1.537A19.069,19.069,0,0,0,165,54.73a18.079,18.079,0,0,0,5.943-4.149,17.62,17.62,0,0,0,3.74-6.148,22.792,22.792,0,0,0,0-15.061,17.629,17.629,0,0,0-3.74-6.148A18.081,18.081,0,0,0,165,19.074a19.1,19.1,0,0,0-7.787-1.536,19.565,19.565,0,0,0-7.787,1.536,20.185,20.185,0,0,0-6.25,4.15,19.273,19.273,0,0,0-4.2,6.148,18.669,18.669,0,0,0-1.537,7.53" fill="#fff"/>
    <path d="M256.557,51.656a20.721,20.721,0,0,1-8.863,7.787A28.218,28.218,0,0,1,236.065,61.8a25.244,25.244,0,0,1-9.836-1.845,22.16,22.16,0,0,1-7.582-5.175,22.722,22.722,0,0,1-4.867-7.889A28.834,28.834,0,0,1,212.09,36.8a27.051,27.051,0,0,1,1.741-9.836,23.452,23.452,0,0,1,4.919-7.839,23.1,23.1,0,0,1,7.479-5.226,23.4,23.4,0,0,1,9.529-1.894,22.851,22.851,0,0,1,9.58,1.894,21.009,21.009,0,0,1,6.967,5.022,21.272,21.272,0,0,1,4.252,7.12,23.81,23.81,0,0,1,1.434,8.094v4.3H218.237a20.981,20.981,0,0,0,.769,4.969,17.567,17.567,0,0,0,2.817,5.893,17.847,17.847,0,0,0,5.482,4.917,17.083,17.083,0,0,0,8.863,2.049,19.779,19.779,0,0,0,9.118-2.254,16.42,16.42,0,0,0,6.763-6.148Zm-4.713-18.75a13.981,13.981,0,0,0-1.281-5.941,15.924,15.924,0,0,0-3.484-4.868,16.534,16.534,0,0,0-5.225-3.33,16.83,16.83,0,0,0-6.4-1.229,15.676,15.676,0,0,0-8.35,2.049,18.254,18.254,0,0,0-5.277,4.714,18.745,18.745,0,0,0-2.766,5.173,13.707,13.707,0,0,0-.82,3.432Z" fill="#fff"/>
    <rect x="194.023" width="6.147" height="47.336" fill="#fff"/>
    <rect x="194.023" y="54.423" width="6.147" height="6.147" fill="#29abe2"/>
    <path d="M32.408,31.6V30.4q0-12.1-12-12.1A20.675,20.675,0,0,0,6.1,23.8l-4-4.7q6.6-6.8,19.8-6.8a21.579,21.579,0,0,1,6.552,1,14.842,14.842,0,0,1,5.451,3.051,15.174,15.174,0,0,1,3.7,5.151,17.913,17.913,0,0,1,1.4,7.4V49.805q0,2.7.25,5.651t.55,4.852h-6.4q-.3-1.7-.45-3.7t-.149-3.9h-.2a17.888,17.888,0,0,1-6.852,6.751,20.778,20.778,0,0,1-9.652,2.051,21.21,21.21,0,0,1-6-.851,15.261,15.261,0,0,1-5.152-2.6,13.2,13.2,0,0,1-3.6-4.3A12.527,12.527,0,0,1,0,47.805q0-5.7,2.951-8.952A18.05,18.05,0,0,1,10.353,34a36.548,36.548,0,0,1,9.5-2q5.049-.4,9.252-.4Zm-3.4,5.4q-2.5,0-6.252.25a36.165,36.165,0,0,0-7.2,1.2,15.884,15.884,0,0,0-5.9,2.951A6.714,6.714,0,0,0,7.2,46.9a7.774,7.774,0,0,0,.951,3.952,7.891,7.891,0,0,0,2.55,2.7,10.878,10.878,0,0,0,3.551,1.5,17.566,17.566,0,0,0,3.951.45,15.06,15.06,0,0,0,6.251-1.2,12.725,12.725,0,0,0,7.1-8.053,19.726,19.726,0,0,0,.85-5.852V37Z" fill="#fff"/>
    <path d="M52.314,28.1q0-3.1-.15-6.3t-.25-8.3h6.5v8.7h.2a14.542,14.542,0,0,1,2-3.651,15.646,15.646,0,0,1,3.15-3.151,15.477,15.477,0,0,1,4.3-2.25,16.876,16.876,0,0,1,5.552-.851,17.887,17.887,0,0,1,4.9.6l-1.3,6.5a11.118,11.118,0,0,0-3.8-.5,13.567,13.567,0,0,0-6.5,1.45,14.44,14.44,0,0,0-4.5,3.7A15.364,15.364,0,0,0,59.765,28.9a16.063,16.063,0,0,0-.849,5V60.308h-6.6Z" fill="#fff"/>
    <path d="M116.807,24.5a14.125,14.125,0,0,0-4.751-4.4,13.41,13.41,0,0,0-6.951-1.8,17.327,17.327,0,0,0-7.353,1.3,16.1,16.1,0,0,0-5.55,3.9,16.783,16.783,0,0,0-3.5,5.951A22.542,22.542,0,0,0,87.5,36.9a22.527,22.527,0,0,0,1.2,7.451,16.783,16.783,0,0,0,3.5,5.953,16.072,16.072,0,0,0,5.55,3.9,17.311,17.311,0,0,0,7.353,1.3,13.42,13.42,0,0,0,6.951-1.8,14.1,14.1,0,0,0,4.751-4.4l5.4,4.1a22.221,22.221,0,0,1-7.9,6.051,23.734,23.734,0,0,1-9.2,2.051,26.2,26.2,0,0,1-10.3-1.75,22.79,22.79,0,0,1-7.851-5.152A22,22,0,0,1,82,46.754,27.911,27.911,0,0,1,80.3,36.9,27.922,27.922,0,0,1,82,27.05,22.013,22.013,0,0,1,86.951,19.2a22.8,22.8,0,0,1,7.851-5.15,26.149,26.149,0,0,1,10.3-1.751,23.716,23.716,0,0,1,9.2,2.051,22.221,22.221,0,0,1,7.9,6.051Z" fill="#fff"/>
    <rect x="293.204" y="20.098" width="24.765" height="6.146" transform="translate(73.12 222.87) rotate(-45)" fill="#fff"/>
    <rect x="288.659" y="33.952" width="6.147" height="6.147" transform="translate(59.287 217.158) rotate(-45.007)" fill="#29abe2"/>
    <rect x="265.521" y="47.867" width="24.596" height="6.147" transform="translate(45.351 211.367) rotate(-45)" fill="#fff"/>
    <rect x="274.667" y="10.847" width="6.147" height="24.375" transform="translate(65.04 203.114) rotate(-44.993)" fill="#fff"/>
    <rect x="288.659" y="33.952" width="6.147" height="6.147" transform="translate(59.245 217.104) rotate(-44.993)" fill="#29abe2"/>
    <rect x="302.652" y="38.831" width="6.147" height="24.375" transform="translate(53.491 231.153) rotate(-45.007)" fill="#fff"/>
  </g>
</svg>
